HIERARCHY
ROOT Hips
{
	OFFSET 0.000000 0.000000 0.000000
	CHANNELS 6 Xposition Yposition Zposition Xrotation Yrotation Zrotation
	JOINT LeftUpLeg_virtual
	{
		OFFSET 0.000000 0.000000 0.000000
		CHANNELS 3 Xrotation Yrotation Zrotation
		JOINT LeftUpLeg
		{
			OFFSET 11.394100 -6.187798 -0.413800
			CHANNELS 3 Xrotation Yrotation Zrotation
			JOINT LeftLeg
			{
				OFFSET 0.430247 -32.302673 3.732800
				CHANNELS 3 Xrotation Yrotation Zrotation
				JOINT LeftFoot
				{
					OFFSET -0.430247 -48.264931 -6.423300
					CHANNELS 3 Xrotation Yrotation Zrotation
					JOINT LeftToeBase
					{
						OFFSET 4.230900 -16.068199 23.438400
						CHANNELS 3 Xrotation Yrotation Zrotation
						JOINT LeftToe_End
						{
							OFFSET 4.510700 0.695400 19.974600
							CHANNELS 3 Xrotation Yrotation Zrotation
							End Site
							{
								OFFSET 0 0 0
							}
						}
					}
				}
			}
		}
	}
	JOINT RightUpLeg_virtual
	{
		OFFSET 0.000000 0.000000 0.000000
		CHANNELS 3 Xrotation Yrotation Zrotation
		JOINT RightUpLeg
		{
			OFFSET -11.333700 -6.187798 -0.413800
			CHANNELS 3 Xrotation Yrotation Zrotation
			JOINT RightLeg
			{
				OFFSET -0.430392 -32.302628 3.733000
				CHANNELS 3 Xrotation Yrotation Zrotation
				JOINT RightFoot
				{
					OFFSET 0.430392 -48.264973 -6.423500
					CHANNELS 3 Xrotation Yrotation Zrotation
					JOINT RightToeBase
					{
						OFFSET -4.230900 -16.068199 23.438400
						CHANNELS 3 Xrotation Yrotation Zrotation
						JOINT RightToe_End
						{
							OFFSET -4.510700 0.695400 19.974600
							CHANNELS 3 Xrotation Yrotation Zrotation
							End Site
							{
								OFFSET 0 0 0
							}
						}
					}
				}
			}
		}
	}
	JOINT Spine_virtual
	{
		OFFSET 0.000000 0.000000 0.000000
		CHANNELS 3 Xrotation Yrotation Zrotation
		JOINT Spine
		{
			OFFSET -0.002400 12.777504 0.315300
			CHANNELS 3 Xrotation Yrotation Zrotation
			JOINT Spine1
			{
				OFFSET -0.002067 5.816869 0.032633
				CHANNELS 3 Xrotation Yrotation Zrotation
				JOINT Spine1_split
				{
					OFFSET -0.002067 5.816869 0.032633
					CHANNELS 3 Xrotation Yrotation Zrotation
					JOINT Spine2
					{
						OFFSET -0.002067 5.816869 0.032633
						CHANNELS 3 Xrotation Yrotation Zrotation
						JOINT Neck_virtual
						{
							OFFSET 0.000000 0.000000 0.000000
							CHANNELS 3 Xrotation Yrotation Zrotation
							JOINT Neck
							{
								OFFSET -0.003700 21.199493 -0.826900
								CHANNELS 3 Xrotation Yrotation Zrotation
								JOINT Head
								{
									OFFSET 0.000000 20.442200 4.834800
									CHANNELS 3 Xrotation Yrotation Zrotation
									JOINT HeadTop_End
									{
										OFFSET 0.000000 34.668396 4.968400
										CHANNELS 3 Xrotation Yrotation Zrotation
										End Site
										{
											OFFSET 0 0 0
										}
									}
								}
							}
						}
						JOINT LeftShoulder_virtual
						{
							OFFSET 0.000000 0.000000 0.000000
							CHANNELS 3 Xrotation Yrotation Zrotation
							JOINT LeftShoulder
							{
								OFFSET 3.288150 8.794197 -1.372250
								CHANNELS 3 Xrotation Yrotation Zrotation
								JOINT LeftShoulder_split
								{
									OFFSET 3.288150 8.794197 -1.372250
									CHANNELS 3 Xrotation Yrotation Zrotation
									JOINT LeftArm
									{
										OFFSET 11.953299 -2.279007 -0.146200
										CHANNELS 3 Xrotation Yrotation Zrotation
										JOINT LeftForeArm
										{
											OFFSET 18.448900 0.000000 0.000000
											CHANNELS 3 Xrotation Yrotation Zrotation
											JOINT LeftHand
											{
												OFFSET 29.527798 0.000000 0.000000
												CHANNELS 3 Xrotation Yrotation Zrotation
												End Site
												{
													OFFSET 0 0 0
												}
											}
										}
									}
								}
							}
						}
						JOINT RightShoulder_virtual
						{
							OFFSET 0.000000 0.000000 0.000000
							CHANNELS 3 Xrotation Yrotation Zrotation
							JOINT RightShoulder
							{
								OFFSET -3.249400 8.794197 -1.372250
								CHANNELS 3 Xrotation Yrotation Zrotation
								JOINT RightShoulder_split
								{
									OFFSET -3.249400 8.794197 -1.372250
									CHANNELS 3 Xrotation Yrotation Zrotation
									JOINT RightArm
									{
										OFFSET -11.953299 -2.279007 -0.146200
										CHANNELS 3 Xrotation Yrotation Zrotation
										JOINT RightForeArm
										{
											OFFSET -18.448900 0.000000 0.000000
											CHANNELS 3 Xrotation Yrotation Zrotation
											JOINT RightHand
											{
												OFFSET -29.527802 0.000000 0.000000
												CHANNELS 3 Xrotation Yrotation Zrotation
												End Site
												{
													OFFSET 0 0 0
												}
											}
										}
									}
								}
							}
						}
					}
				}
			}
		}
	}
}
MOTION
Frames: 11
Frame Time: 0.03333333
0.579153 92.836327 -1.058800 0.000000 0.000000 0.000000 33.964113 -23.497067 7.082659 -89.124577 1.131997 23.646941 93.843084 5.109635 -4.998823 22.140763 -4.875868 2.923225 -33.534808 1.236584 -1.936688 0.000000 0.000000 0.000000 33.964113 -23.497067 7.082659 -52.342400 4.054075 6.693045 47.036251 4.122922 0.431449 -17.681189 -1.987205 0.096940 -11.137432 0.075437 -0.382173 0.000000 0.000000 0.000000 33.964113 -23.497067 7.082659 11.630316 4.110497 -2.080440 5.818537 0.259720 -2.809622 0.000000 0.000000 0.000000 0.000000 0.000000 0.000000 -10.931787 0.793509 3.196300 0.763620 9.298929 -8.496117 -32.953132 4.763626 2.047907 0.000000 0.000000 0.000000 -10.931787 0.793509 3.196300 1.952243 -2.052957 14.106887 0.000000 0.000000 0.000000 -76.027334 17.447746 -39.907627 -79.531378 -83.559503 -82.552740 0.000000 0.000000 0.000000 -10.931787 0.793509 3.196300 4.985254 19.106686 8.633896 0.000000 0.000000 0.000000 -22.095488 5.720154 42.521319 29.456659 69.546871 -32.206183 0.000000 0.000000 0.000000 
-0.313154 94.165260 12.646599 0.000000 0.000000 0.000000 30.105643 -20.894257 6.425712 -92.619073 1.090569 21.368698 85.612870 6.355084 -3.899184 18.912866 -5.082431 -0.054442 -20.138777 -0.374645 1.126988 0.000000 0.000000 0.000000 30.105643 -20.894257 6.425712 -39.013528 3.969534 1.409839 45.302138 1.348944 -0.257025 -16.078142 -8.405445 6.356567 -17.950377 2.648140 0.054182 0.000000 0.000000 0.000000 30.105643 -20.894257 6.425712 15.497894 5.239165 -6.438070 4.029729 1.227236 -0.599439 0.000000 0.000000 0.000000 0.000000 0.000000 0.000000 -10.285315 0.762046 3.923219 -2.852078 7.836788 -6.163744 -28.170349 4.307466 0.283356 0.000000 0.000000 0.000000 -10.285315 0.762046 3.923219 1.718147 -1.109382 11.529363 0.000000 0.000000 0.000000 -73.265486 13.679095 -35.280550 149.353520 -84.574435 147.519300 0.000000 0.000000 0.000000 -10.285315 0.762046 3.923219 4.280033 20.150728 5.717933 0.000000 0.000000 0.000000 -22.945332 2.376921 38.931470 122.509811 76.439789 -127.618273 0.000000 0.000000 0.000000 
-1.286234 95.816803 26.239758 0.000000 0.000000 0.000000 26.183616 -18.213948 6.121321 -88.906202 3.769845 18.258095 70.080289 8.559525 -2.784806 14.736191 -4.968921 -2.984747 -0.173929 0.071503 0.375068 0.000000 0.000000 0.000000 26.183616 -18.213948 6.121321 -23.450316 3.961305 -3.447122 38.770025 -2.495404 -0.832718 -7.761038 -13.032454 14.923501 -27.966140 4.975921 1.669130 0.000000 0.000000 0.000000 26.183616 -18.213948 6.121321 19.745758 6.627009 -11.381558 2.102497 2.546438 1.965312 0.000000 0.000000 0.000000 0.000000 0.000000 0.000000 -9.313782 0.947434 4.855494 -6.915205 5.019032 -4.501209 -23.038272 3.199300 -1.694708 0.000000 0.000000 0.000000 -9.313782 0.947434 4.855494 1.575008 -1.138139 7.901667 0.000000 0.000000 0.000000 -68.670230 12.567406 -29.970737 143.981918 -77.688552 143.279105 0.000000 0.000000 0.000000 -9.313782 0.947434 4.855494 3.699677 18.680745 1.234709 0.000000 0.000000 0.000000 -25.214261 8.862766 35.909320 144.796308 69.393110 -150.356711 0.000000 0.000000 0.000000 
-2.253578 97.092194 38.915836 0.000000 0.000000 0.000000 22.354924 -15.539893 6.189546 -78.483033 8.158531 13.938447 51.344202 10.304594 -1.282322 11.022085 -4.791703 -4.963993 -0.068282 -0.016382 0.476709 0.000000 0.000000 0.000000 22.354924 -15.539893 6.189546 -12.459914 5.876686 -8.297917 35.288295 -7.652202 -0.750065 11.369431 -7.956778 23.221460 -46.358085 5.778612 4.809554 0.000000 0.000000 0.000000 22.354924 -15.539893 6.189546 24.256666 7.929570 -15.933450 0.173439 3.894096 4.232962 0.000000 0.000000 0.000000 0.000000 0.000000 0.000000 -8.139761 1.210103 5.492465 -10.988670 1.368800 -3.315357 -18.012438 1.823733 -3.668781 0.000000 0.000000 0.000000 -8.139761 1.210103 5.492465 1.361032 -2.605524 3.314329 0.000000 0.000000 0.000000 -60.515859 16.225278 -25.721272 135.143940 -66.378347 136.245540 0.000000 0.000000 0.000000 -8.139761 1.210103 5.492465 2.965240 16.086089 -3.315622 0.000000 0.000000 0.000000 -24.438354 17.650199 34.902540 140.099256 71.704719 -145.080909 0.000000 0.000000 0.000000 
-3.099582 97.592354 50.226814 0.000000 0.000000 0.000000 18.790583 -13.046189 6.363076 -66.467952 13.650392 9.738707 39.402798 8.301519 0.353391 2.268233 -4.903765 -6.767549 -0.081503 -0.725334 1.495552 0.000000 0.000000 0.000000 18.790583 -13.046189 6.363076 0.111585 10.453173 -10.160233 25.365267 -10.740521 -0.365935 34.749434 1.298560 22.504777 -69.590141 11.096033 3.909977 0.000000 0.000000 0.000000 18.790583 -13.046189 6.363076 28.611838 9.043888 -18.909041 -1.519187 4.905837 5.559156 0.000000 0.000000 0.000000 0.000000 0.000000 0.000000 -6.863621 1.266539 5.371835 -14.654468 -2.540823 -2.074444 -13.492889 0.690549 -5.540203 0.000000 0.000000 0.000000 -6.863621 1.266539 5.371835 0.759132 -5.033630 -0.900611 0.000000 0.000000 0.000000 -46.886397 24.184107 -27.289592 137.352632 -57.102058 140.325717 0.000000 0.000000 0.000000 -6.863621 1.266539 5.371835 2.064620 19.145398 -0.105393 0.000000 0.000000 0.000000 -18.845773 15.314604 31.325785 112.202653 78.942206 -116.073177 0.000000 0.000000 0.000000 
-3.474787 97.343613 61.446323 0.000000 0.000000 0.000000 15.607657 -10.781606 5.986398 -54.764655 18.206619 5.422473 31.836021 5.322263 2.351853 -1.634324 -5.028226 -6.954908 -0.092682 -1.529250 2.631175 0.000000 0.000000 0.000000 15.607657 -10.781606 5.986398 1.843592 12.199535 -9.257827 34.585725 -14.294578 0.209734 37.450931 5.547012 17.485394 62.372215 -6.910178 -10.668923 0.000000 0.000000 0.000000 15.607657 -10.781606 5.986398 32.222285 9.940757 -18.309903 -2.669982 5.143536 5.015701 0.000000 0.000000 0.000000 0.000000 0.000000 0.000000 -5.566156 0.686415 3.800968 -17.496390 -6.211437 0.517930 -9.742683 0.605238 -7.531037 0.000000 0.000000 0.000000 -5.566156 0.686415 3.800968 -0.004801 -6.052264 -4.657573 0.000000 0.000000 0.000000 -30.554250 29.050529 -35.585641 132.991501 -49.805661 138.132885 0.000000 0.000000 0.000000 -5.566156 0.686415 3.800968 -0.565068 22.650664 11.650175 0.000000 0.000000 0.000000 -10.734383 7.165128 25.745481 60.815082 79.186625 -64.298902 0.000000 0.000000 0.000000 
-3.275482 96.082039 73.746292 0.000000 0.000000 0.000000 12.936739 -8.546630 4.841439 -45.839336 20.347029 1.040616 31.130845 3.444852 4.678798 -0.643914 -5.481338 0.387447 -0.107648 -1.749862 3.050805 0.000000 0.000000 0.000000 12.936739 -8.546630 4.841439 -3.898613 9.143423 -7.870159 51.802354 -16.842681 0.751792 26.676473 6.618850 12.477345 -3.657160 -1.216892 5.441130 0.000000 0.000000 0.000000 12.936739 -8.546630 4.841439 34.638495 10.136413 -13.128091 -3.109720 4.168120 2.112319 0.000000 0.000000 0.000000 0.000000 0.000000 0.000000 -4.511052 -0.921671 0.515201 -18.930489 -9.099438 5.428774 -6.911721 2.042705 -9.763902 0.000000 0.000000 0.000000 -4.511052 -0.921671 0.515201 -0.564036 -5.116502 -8.998658 0.000000 0.000000 0.000000 -18.809503 24.062627 -46.559357 128.176068 -48.511883 133.177323 0.000000 0.000000 0.000000 -4.511052 -0.921671 0.515201 -1.957635 20.206850 20.486768 0.000000 0.000000 0.000000 -0.270047 0.314883 26.820993 50.522090 66.832001 -53.604677 0.000000 0.000000 0.000000 
-3.507163 93.158234 85.291489 0.000000 0.000000 0.000000 11.521000 -5.259426 5.617543 -42.789264 18.779069 -2.933212 42.189983 2.980864 6.453330 -11.081389 -4.465523 0.950067 -0.705333 -0.581120 0.889543 0.000000 0.000000 0.000000 11.521000 -5.259426 5.617543 -24.442025 8.244690 -8.589543 78.187067 -16.592471 -0.094421 21.988114 9.803639 16.663882 -7.073212 -0.939988 7.046371 0.000000 0.000000 0.000000 11.521000 -5.259426 5.617543 34.896611 8.169143 -11.424457 -2.815405 2.116009 0.753811 0.000000 0.000000 0.000000 0.000000 0.000000 0.000000 -3.921085 -3.016751 -0.561651 -20.673656 -8.726411 6.303370 -4.680588 2.383480 -8.269328 0.000000 0.000000 0.000000 -3.921085 -3.016751 -0.561651 -0.580713 -4.662475 -11.140316 0.000000 0.000000 0.000000 -20.396422 17.905406 -50.557388 131.360739 -52.089762 133.896570 0.000000 0.000000 0.000000 -3.921085 -3.016751 -0.561651 -1.234236 14.861595 24.592315 0.000000 0.000000 0.000000 9.985893 -7.632391 32.098829 47.769373 63.135359 -50.883096 0.000000 0.000000 0.000000 
-3.953612 89.875137 96.781830 0.000000 0.000000 0.000000 10.635966 -1.315813 7.131398 -37.353447 16.647363 -7.142279 50.133763 3.881409 7.433963 -22.859912 -4.167452 -1.175685 -0.749736 -0.546475 0.948934 0.000000 0.000000 0.000000 10.635966 -1.315813 7.131398 -49.496646 10.606763 -8.716973 94.945148 -15.734104 -1.159234 31.425086 9.956295 14.808656 -16.229399 -2.291727 8.542735 0.000000 0.000000 0.000000 10.635966 -1.315813 7.131398 34.257712 5.395854 -11.472421 -2.365451 -0.366308 0.970298 0.000000 0.000000 0.000000 0.000000 0.000000 0.000000 -3.299696 -5.304176 0.161979 -24.531080 -6.192877 3.857606 -1.793803 2.074539 -4.457145 0.000000 0.000000 0.000000 -3.299696 -5.304176 0.161979 -0.502877 -4.601481 -11.307645 0.000000 0.000000 0.000000 -24.275459 13.952417 -52.002168 136.801408 -54.495942 137.338316 0.000000 0.000000 0.000000 -3.299696 -5.304176 0.161979 -0.426702 10.074954 25.036041 0.000000 0.000000 0.000000 17.467698 -17.717492 37.950406 29.398131 72.463137 -34.413232 0.000000 0.000000 0.000000 
-3.917667 88.624138 109.388809 0.000000 0.000000 0.000000 9.665454 2.457229 5.991804 -25.415754 11.966404 -8.660277 48.245055 4.097572 7.536029 -32.073704 -4.513781 -3.246939 -0.796305 -0.511997 1.002528 0.000000 0.000000 0.000000 9.665454 2.457229 5.991804 -68.694027 8.535250 -7.264395 97.096098 -9.967152 -1.262064 33.995539 7.264675 7.173434 -51.490604 -3.575595 3.508948 0.000000 0.000000 0.000000 9.665454 2.457229 5.991804 35.431050 4.357314 -6.583659 -2.877116 -2.983746 0.739035 0.000000 0.000000 0.000000 0.000000 0.000000 0.000000 -3.641845 -7.699938 0.465050 -29.364394 -3.483768 2.855418 3.551912 3.044457 -3.758040 0.000000 0.000000 0.000000 -3.641845 -7.699938 0.465050 -0.511404 -5.251669 -9.274891 0.000000 0.000000 0.000000 -30.202844 12.884650 -50.973056 144.029510 -58.445136 141.891470 0.000000 0.000000 0.000000 -3.641845 -7.699938 0.465050 0.622098 3.784272 21.693956 0.000000 0.000000 0.000000 27.803649 -26.894027 46.299674 9.121546 77.399936 -16.083598 0.000000 0.000000 0.000000 
-3.814204 89.566658 123.219711 0.000000 0.000000 0.000000 7.341682 4.239623 2.872830 -4.044809 7.857497 -5.316081 32.982413 2.478878 6.139765 -36.374917 -4.886770 -4.943010 -0.841379 -0.477616 1.060087 0.000000 0.000000 0.000000 7.341682 4.239623 2.872830 -76.041807 3.101959 -5.517020 89.441457 0.542476 -0.612047 22.004225 5.938110 0.636027 -32.630942 2.113836 -3.027702 0.000000 0.000000 0.000000 7.341682 4.239623 2.872830 37.029690 4.952217 2.012276 -4.508087 -5.503531 -0.579200 0.000000 0.000000 0.000000 0.000000 0.000000 0.000000 -5.383347 -10.199739 -0.222046 -26.944577 -0.285631 3.507942 4.611211 5.363156 -4.583570 0.000000 0.000000 0.000000 -5.383347 -10.199739 -0.222046 -0.464825 -6.682489 -5.071065 0.000000 0.000000 0.000000 -39.723342 14.804992 -45.801066 149.833846 -64.562705 144.976639 0.000000 0.000000 0.000000 -5.383347 -10.199739 -0.222046 0.894793 -1.383418 15.328558 0.000000 0.000000 0.000000 38.962483 -31.759956 55.274207 -16.623787 76.712805 8.579146 0.000000 0.000000 0.000000 
